# xmcd
#
# Track frame offsets:
#	150
#	17847
#	39377
#	63035
#	82157
#	102852
#	119967
#	141702
#	161130
#	182290
#
# Disc length: 2739 seconds
#
# Revision: 0
# Processed by: cddbd v1.5.2PL0 Copyright (c) Steve Scherf et al.
# Submitted via: EasyCDDAExtractor 16.0.9.1
#
DISCID=8b0ab10a
DTITLE=Anh Tú - KH48: Giòng Sông
DYEAR=1998
DGENRE=Pop
TTITLE0=Anh Vẫn Buồn Như Xưa
TTITLE1=Giòng Sông
TTITLE2=Xin Cho Một Nụ Cười
TTITLE3=Phút Chia Xa
TTITLE4=Xa Nhau
TTITLE5=Trái Tim Lầm Lỡ
TTITLE6=Chán Nản
TTITLE7=Cuộc Tình Xa
TTITLE8=Tình Kỷ Nữ
TTITLE9=Nếu Không Có Em
EXTD=
EXTT0=
EXTT1=
EXTT2=
EXTT3=
EXTT4=
EXTT5=
EXTT6=
EXTT7=
EXTT8=
EXTT9=
PLAYORDER=
